# xmcd
#
# Track frame offsets:
#	150
#	17195
#	33615
#	51522
#	64527
#	85597
#
# Disc length: 1358 seconds
#
# Revision: 1
# Processed by: cddbd v1.5.1PL0 Copyright (c) Steve Scherf et al.
# Submitted via: CDex 1.50Beta5
#
DISCID=48054c06
DTITLE=麻生よう子 - 逃避行
DYEAR=2002
DGENRE=Blues
TTITLE0=逃避行
TTITLE1=午前零時の鐘
TTITLE2=西航路
TTITLE3=片隅のふたり
TTITLE4=別れの朝
TTITLE5=ジョニーへの伝言
EXTD=
EXTT0=
EXTT1=
EXTT2=
EXTT3=
EXTT4=
EXTT5=
PLAYORDER=
